<?xml version="1.0" encoding="UTF-8" standalone="no"?>
<!-- Created with Inkscape (http://www.inkscape.org/) -->

<svg
   xmlns:dc="http://purl.org/dc/elements/1.1/"
   xmlns:cc="http://creativecommons.org/ns#"
   xmlns:rdf="http://www.w3.org/1999/02/22-rdf-syntax-ns#"
   xmlns:svg="http://www.w3.org/2000/svg"
   xmlns="http://www.w3.org/2000/svg"
   version="1.2"
   width="180"
   height="180"
   id="svg2">
  <defs
     id="defs4">
    <clipPath
       id="clipPath3828">
      <path
         d="m 461.4379,418.04846 a 34.967319,34.967319 0 1 1 -69.93464,0 34.967319,34.967319 0 1 1 69.93464,0 z"
         transform="matrix(3.5511075,0,0,3.550907,-1159.3478,-652.23028)"
         id="path3830"
         style="fill:#323232;fill-opacity:0.60317461;stroke:none" />
    </clipPath>
  </defs>
  <metadata
     id="metadata7">
    <rdf:RDF>
      <cc:Work
         rdf:about="">
        <dc:format>image/svg+xml</dc:format>
        <dc:type
           rdf:resource="http://purl.org/dc/dcmitype/StillImage" />
        <dc:title></dc:title>
      </cc:Work>
    </rdf:RDF>
  </metadata>
  <g
     transform="translate(0,-872.36211)"
     id="layer1">
    <g
       transform="matrix(1.0602433,0,0,1.0602433,-439.80754,463.03359)"
       id="g3905">
      <path
         d="m 461.4379,418.04846 a 34.967319,34.967319 0 1 1 -69.93464,0 34.967319,34.967319 0 1 1 69.93464,0 z"
         transform="matrix(2.2359238,0,0,2.2357974,-453.85197,-463.71062)"
         id="path3848-7"
         style="fill:none;stroke:#50c878;stroke-width:5.99493265;stroke-miterlimit:4;stroke-opacity:1;stroke-dasharray:none" />
      <path
         d="m 407.42601,388.7224 c 16.19634,-10.51802 37.85261,-5.91484 48.37063,10.28149 10.51803,16.19634 5.91485,37.85261 -10.28149,48.37063 -16.19634,10.51803 -37.85261,5.91485 -48.37063,-10.28149 -5.67595,-8.7402 -7.15762,-19.55661 -4.04116,-29.50122 l 33.36722,10.45665 z"
         transform="matrix(1.0008736,0,0,1.000817,72.860608,52.571041)"
         id="path3848"
         style="fill:#50c878;fill-opacity:1;fill-rule:evenodd;stroke:none" />
    </g>
  </g>
</svg>
